<?xml version="1.0" encoding="utf-8"?>
<!-- Generator: Adobe Illustrator 21.0.0, SVG Export Plug-In . SVG Version: 6.00 Build 0)  -->
<svg version="1.1" id="Layer_1" xmlns="http://www.w3.org/2000/svg" xmlns:xlink="http://www.w3.org/1999/xlink" x="0px" y="0px"
	 viewBox="0 0 32 15" style="enable-background:new 0 0 32 15;" xml:space="preserve">
<g id="modal" transform="translate(0.000000, -1.000000)">
	<g id="produs" transform="translate(6.000000, 513.000000)">
		<path id="Shape" d="M23.7-510.9v2.3h-3.4v-2.3H23.7z M17.4-510.9v2.3H14v-2.3H17.4z M11.1-510.9v2.3H7.7v-2.3H11.1z M4.9-510.9
			v2.3H1.4v-2.3H4.9z M-1.4-510.9v2.3h-3.4v-2.3H-1.4z M20.3-505.7v2.3h-3.4v-2.3H20.3z M14-505.7v2.3h-3.4v-2.3H14z M7.7-505.7v2.3
			H4.3v-2.3H7.7z M1.4-505.7v2.3H-2v-2.3H1.4z M24.9-500.6v2.3h-3.4v-2.3H24.9z M18.6-500.6v2.3h-16v-2.3H18.6z M-0.3-500.6v2.3
			h-3.4v-2.3H-0.3z M23.7-512h-3.4c-0.6,0-1.1,0.5-1.1,1.1v2.3c0,0.6,0.5,1.1,1.1,1.1h3.4c0.6,0,1.1-0.5,1.1-1.1v-2.3
			C24.9-511.5,24.3-512,23.7-512z M17.4-512H14c-0.6,0-1.1,0.5-1.1,1.1v2.3c0,0.6,0.5,1.1,1.1,1.1h3.4c0.6,0,1.1-0.5,1.1-1.1v-2.3
			C18.6-511.5,18.1-512,17.4-512z M11.1-512H7.7c-0.6,0-1.1,0.5-1.1,1.1v2.3c0,0.6,0.5,1.1,1.1,1.1h3.4c0.6,0,1.1-0.5,1.1-1.1v-2.3
			C12.3-511.5,11.8-512,11.1-512z M4.9-512H1.4c-0.6,0-1.1,0.5-1.1,1.1v2.3c0,0.6,0.5,1.1,1.1,1.1h3.4c0.6,0,1.1-0.5,1.1-1.1v-2.3
			C6-511.5,5.5-512,4.9-512z M-1.4-512h-3.4c-0.6,0-1.1,0.5-1.1,1.1v2.3c0,0.6,0.5,1.1,1.1,1.1h3.4c0.6,0,1.1-0.5,1.1-1.1v-2.3
			C-0.3-511.5-0.8-512-1.4-512z M20.3-506.9h-3.4c-0.6,0-1.1,0.5-1.1,1.1v2.3c0,0.6,0.5,1.1,1.1,1.1h3.4c0.6,0,1.1-0.5,1.1-1.1v-2.3
			C21.4-506.3,20.9-506.9,20.3-506.9z M14-506.9h-3.4c-0.6,0-1.1,0.5-1.1,1.1v2.3c0,0.6,0.5,1.1,1.1,1.1H14c0.6,0,1.1-0.5,1.1-1.1
			v-2.3C15.1-506.3,14.6-506.9,14-506.9z M7.7-506.9H4.3c-0.6,0-1.1,0.5-1.1,1.1v2.3c0,0.6,0.5,1.1,1.1,1.1h3.4
			c0.6,0,1.1-0.5,1.1-1.1v-2.3C8.9-506.3,8.3-506.9,7.7-506.9z M1.4-506.9H-2c-0.6,0-1.1,0.5-1.1,1.1v2.3c0,0.6,0.5,1.1,1.1,1.1h3.4
			c0.6,0,1.1-0.5,1.1-1.1v-2.3C2.6-506.3,2.1-506.9,1.4-506.9z M24.9-501.7h-3.4c-0.6,0-1.1,0.5-1.1,1.1v2.3c0,0.6,0.5,1.1,1.1,1.1
			h3.4c0.6,0,1.1-0.5,1.1-1.1v-2.3C26-501.2,25.5-501.7,24.9-501.7z M18.6-501.7h-16c-0.6,0-1.1,0.5-1.1,1.1v2.3
			c0,0.6,0.5,1.1,1.1,1.1h16c0.6,0,1.1-0.5,1.1-1.1v-2.3C19.7-501.2,19.2-501.7,18.6-501.7z M-0.3-501.7h-3.4
			c-0.6,0-1.1,0.5-1.1,1.1v2.3c0,0.6,0.5,1.1,1.1,1.1h3.4c0.6,0,1.1-0.5,1.1-1.1v-2.3C0.9-501.2,0.3-501.7-0.3-501.7z"/>
	</g>
</g>
</svg>
