<?xml version="1.0" encoding="utf-8"?>
<!-- Generator: Adobe Illustrator 21.0.0, SVG Export Plug-In . SVG Version: 6.00 Build 0)  -->
<svg version="1.1" id="Layer_1" xmlns="http://www.w3.org/2000/svg" xmlns:xlink="http://www.w3.org/1999/xlink" x="0px" y="0px"
	 viewBox="0 0 32 24" style="enable-background:new 0 0 32 24;" xml:space="preserve">
<g id="modal" transform="translate(0.000000, -1.000000)">
	<g id="produs" transform="translate(6.000000, 436.000000)">
		<path id="Shape" d="M-4.9-433.9h4.6v-1.1H-6v5.7h1.1V-433.9z M-4.9-416.7H-6v5.7h5.7v-1.1h-4.6V-416.7z M19.4-435v1.1H24v4.6h1.1
			v-5.7H19.4z M24-412.1h-4.6v1.1h5.7v-5.7H24L24-412.1L24-412.1z M18.7-428.1c0,0,0-0.6-0.6-0.6H1c-0.5,0-0.6,0.6-0.6,0.6v1.7h18.3
			L18.7-428.1L18.7-428.1z M0.4-418.3c0,0.5,0.6,1,1.1,1h16c0.5,0,1.1-0.6,1.1-1.1v-5.7H0.4L0.4-418.3z M1.6-423h16v4
			c0,0,0,0.6-0.6,0.6H2.1c-0.5,0-0.6-0.6-0.6-0.6L1.6-423L1.6-423z M16.4-421.9h-2.3v2.3h2.3V-421.9z"/>
	</g>
</g>
</svg>
